<svg xmlns="http://www.w3.org/2000/svg" width="500" height="500" viewBox="0 0 500 500" fill="none">
    <rect width="500" height="500" fill="white"/>
    <g transform="translate(130,130) scale(10)">
        <path d="M19 7V4a1 1 0 0 0-1-1H5a2 2 0 0 0 0 4h15a1 1 0 0 1 1 1v4h-3a2 2 0 0 0 0 4h3a1 1 0 0 0 1-1v-2a1 1 0 0 0-1-1" stroke="black" stroke-width="2" stroke-linecap="round" stroke-linejoin="round"/>
        <path d="M3 5v14a2 2 0 0 0 2 2h15a1 1 0 0 0 1-1v-4" stroke="black" stroke-width="2" stroke-linecap="round" stroke-linejoin="round"/>
    </g>
</svg>
